PathFileType	4	(X/Y/Z)	C:/Users/opensim2020/Desktop/walking_exp_matlab/subject06_walking18_straight_02.trc																																																																																																																																											
DataRate	CameraRate	NumFrames	NumMarkers	Units	OrigDataRate	OrigDataStartFrame	OrigNumFrames																																																																																																																																							
100	100	8	47	mm	100	2333	326																																																																																																																																							
Frame#	Time	LFHD			RFHD			LBHD			RBHD			C7			T10			CLAV			STRN			RBAK			LSHO			LUPA			LELB			LFRM			LWRA			LWRB			LFIN			RSHO			RUPA			RELB			RFRM			RWRA			RWRB			RFIN			LASI			RASI			LPSI			RPSI			LTHI			LKNE			LTIB			LANK			LHEE			LTOE			RTHI			RKNE			RTIB			RANK			RHEE			RTOE			*39			*40			*41			*42			*43			*44			*45			*46		
		X1	Y1	Z1	X2	Y2	Z2	X3	Y3	Z3	X4	Y4	Z4	X5	Y5	Z5	X6	Y6	Z6	X7	Y7	Z7	X8	Y8	Z8	X9	Y9	Z9	X10	Y10	Z10	X11	Y11	Z11	X12	Y12	Z12	X13	Y13	Z13	X14	Y14	Z14	X15	Y15	Z15	X16	Y16	Z16	X17	Y17	Z17	X18	Y18	Z18	X19	Y19	Z19	X20	Y20	Z20	X21	Y21	Z21	X22	Y22	Z22	X23	Y23	Z23	X24	Y24	Z24	X25	Y25	Z25	X26	Y26	Z26	X27	Y27	Z27	X28	Y28	Z28	X29	Y29	Z29	X30	Y30	Z30	X31	Y31	Z31	X32	Y32	Z32	X33	Y33	Z33	X34	Y34	Z34	X35	Y35	Z35	X36	Y36	Z36	X37	Y37	Z37	X38	Y38	Z38	X39	Y39	Z39	X40	Y40	Z40	X41	Y41	Z41	X42	Y42	Z42	X43	Y43	Z43	X44	Y44	Z44	X45	Y45	Z45	X46	Y46	Z46	X47	Y47	Z47
																																																																																																																																														
82	0.81	-727.4917	1675.54431	1007.18878	-723.84674	1664.68127	1138.92542	-860.24506	1618.37878	1010.99725	-854.05957	1612.56274	1140.53955	-857.75323	1462.02112	1067.14465	-892.69641	1134.12976	1077.01001	-748.11835	1385.33142	1065.31653	-709.64594	1207.79761	1058.37891	-926.91107	1290.39966	1150.96899	-805.69312	1416.00574	904.90643	-809.05811	1212.16943	833.23334	-810.7652	1099.79089	821.81421	-774.40619	954.43054	796.68561	-699.50873	847.20612	832.8009	-762.17493	835.60217	799.95099	-710.86304	760.30878	794.8349	-788.13947	1418.13232	1226.62354	-817.56866	1221.03271	1318.97412	-801.56525	1100.69946	1331.73022	-757.91052	989.41107	1342.50989	-664.39771	875.62128	1296.93921	-712.7644	859.69171	1341.39709	-655.86542	797.39355	1335.36316	-730.45923	972.99329	955.78021	-718.3252	971.96204	1175.32837	-886.11731	1002.18103	988.63428	-870.49664	1004.29926	1156.96411	-744.17505	660.84369	899.69568	-702.87152	504.56519	926.99829	-803.57996	274.79776	920.53906	-856.33752	108.38528	948.81226	-896.79803	97.90574	996.4704	-725.81177	50.05189	941.30774	-777.9809	638.88281	1222.54285	-781.64075	512.08734	1198.77881	-835.9292	252.97685	1194.20691	-860.53931	67.53079	1147.33691	-903.35266	41.4045	1106.19849	-709.75006	38.61766	1132.44629	-827.25354	1711.7616	1069.75696	NaN	NaN	NaN	NaN	NaN	NaN	NaN	NaN	NaN	NaN	NaN	NaN	NaN	NaN	NaN	NaN	NaN	NaN	NaN	NaN	NaN
83	0.82	-721.97675	1675.05298	1006.08331	-718.03003	1664.73584	1137.87036	-854.89801	1618.20288	1010.5246	-848.63745	1612.8252	1140.53113	-852.45679	1462.04712	1067.15039	-887.99298	1134.25854	1077.45264	-743.03137	1385.13013	1065.1521	-704.85809	1207.57349	1058.50513	-921.61749	1290.76392	1151.56616	-800.85553	1415.65649	904.83759	-805.97803	1211.8717	833.15204	-808.78418	1099.56909	821.53021	-774.59564	953.72845	796.15387	-701.17419	845.31836	831.16553	-764.18243	834.79578	798.73907	-714.21594	758.73053	793.08618	-782.56305	1418.44324	1226.47253	-811.45764	1221.44019	1319.25452	-795.56323	1101.17163	1331.96997	-751.56012	989.99933	1342.45703	-658.08228	876.51019	1296.06885	-706.01611	860.45563	1341.01782	-648.92755	798.34991	1334.35059	-725.59949	973.24286	956.15186	-714.28912	971.80457	1175.63806	-881.53162	1002.21399	988.74066	-866.21539	1004.20227	1157.00439	-738.78162	661.33319	899.47839	-696.43225	505.33582	927.0506	-789.23022	271.88388	920.02252	-835.70911	103.61479	948.23163	-875.7016	91.76259	995.79358	-702.95044	49.54204	941.23938	-775.06573	638.69031	1222.62842	-779.27014	511.85776	1198.85425	-835.18787	253.03423	1193.94214	-860.58105	67.6133	1147.18774	-903.48999	41.49024	1106.07043	-709.76794	38.55898	1132.5863	-821.59979	1711.72949	1068.88684	NaN	NaN	NaN	NaN	NaN	NaN	NaN	NaN	NaN	NaN	NaN	NaN	NaN	NaN	NaN	NaN	NaN	NaN	NaN	NaN	NaN
84	0.83	-716.46973	1674.66223	1004.90112	-712.18854	1664.72949	1136.79492	-849.53894	1617.95227	1010.06348	-842.95087	1613.10547	1140.15039	-847.13422	1462.00537	1067.07068	-883.36578	1134.31848	1077.85168	-737.84375	1384.92603	1064.92871	-700.10248	1207.27942	1058.57239	-916.40802	1291.10083	1152.0824	-796.05261	1415.32141	904.67682	-802.92365	1211.60095	833.02954	-806.9079	1099.37634	821.33527	-775.367	953.16663	794.83722	-702.74487	843.6424	829.69269	-766.08008	834.10889	797.57916	-717.35132	757.27502	791.50647	-776.79346	1418.57593	1226.2124	-805.3501	1221.78174	1319.5188	-789.59735	1101.52246	1332.18359	-745.33429	990.48511	1342.38245	-651.94983	877.22723	1295.17725	-699.26892	861.05798	1340.6344	-642.19946	799.0697	1333.27478	-720.70367	973.32813	956.48419	-710.08856	971.66687	1176.01379	-876.87366	1002.15527	988.77661	-861.86829	1004.00433	1156.99976	-733.6972	661.47778	899.36151	-690.12708	505.97931	927.0481	-775.02692	269.15506	919.51404	-814.98376	99.15429	947.71136	-854.26074	85.79637	995.01428	-680.48181	49.17345	941.22974	-772.01556	638.30621	1222.20618	-776.99115	511.57495	1198.91528	-834.3515	252.94765	1193.73291	-860.52185	67.68201	1147.14893	-903.54913	41.54179	1105.88794	-709.84796	38.50157	1132.69482	-815.86328	1711.66638	1067.98853	NaN	NaN	NaN	NaN	NaN	NaN	NaN	NaN	NaN	NaN	NaN	NaN	NaN	NaN	NaN	NaN	NaN	NaN	NaN	NaN	NaN
85	0.84	-710.86414	1674.19177	1003.87061	-706.26196	1664.63171	1135.65588	-844.01483	1617.66516	1009.69745	-836.84393	1613.18298	1139.27612	-841.82385	1461.91199	1066.97131	-878.6488	1134.32056	1078.10681	-732.70599	1384.63269	1064.63245	-695.26935	1206.97119	1058.57776	-911.09723	1291.34473	1152.45752	-791.16833	1414.89319	904.45441	-799.85376	1211.29285	832.862	-804.87805	1099.19653	821.04315	-775.44159	952.78363	794.15985	-704.17755	841.99756	828.30426	-767.78131	833.41791	796.43573	-720.23279	755.91241	789.9931	-771.0708	1418.62988	1225.94629	-799.37567	1222.04822	1319.76807	-783.6734	1101.82068	1332.41736	-739.14722	990.8974	1342.27673	-645.90942	877.81586	1294.16296	-692.82715	861.67822	1340.33948	-635.52631	799.66437	1332.15259	-715.71368	973.40057	956.75299	-705.70233	971.56677	1176.33704	-872.06793	1001.98706	988.83905	-857.51782	1003.72552	1157.05408	-728.44214	661.81781	899.23969	-683.99512	506.37466	926.87665	-761.01251	266.59653	919.04419	-794.37006	95.21275	947.30157	-833.49609	80.95926	994.76892	-658.14124	48.9996	941.22308	-768.95398	638.11584	1222.37476	-774.67767	511.29376	1199.06152	-833.53369	252.9035	1193.64941	-860.57056	67.72501	1147.00061	-903.64447	41.63955	1105.70569	-709.78021	38.40295	1132.76038	-810.13043	1711.51428	1067.04626	NaN	NaN	NaN	NaN	NaN	NaN	NaN	NaN	NaN	NaN	NaN	NaN	NaN	NaN	NaN	NaN	NaN	NaN	NaN	NaN	NaN
86	0.85	-705.33618	1673.62048	1002.67981	-700.27661	1664.42297	1134.48499	-838.65558	1617.30017	1008.99097	-831.09973	1613.21729	1138.77197	-836.43359	1461.74854	1066.80249	-873.86499	1134.21423	1078.26465	-727.38544	1384.30164	1064.30322	-690.32294	1206.59021	1058.56848	-905.85052	1291.49097	1152.70911	-786.32587	1414.45203	904.24121	-796.80786	1210.9856	832.65784	-802.84155	1099.00793	820.74969	-775.00208	952.30096	793.58234	-705.41168	840.46021	826.96564	-769.37299	832.91119	795.41803	-722.91644	754.64563	788.53448	-765.19702	1418.49207	1225.60925	-793.49359	1222.21643	1319.98901	-777.77997	1101.95557	1332.64514	-733.07904	991.15765	1342.16333	-640.03302	878.2326	1293.16443	-686.34894	862.05756	1339.94995	-629.13177	800.07599	1331.00537	-710.71771	973.34515	957.03088	-701.28711	971.31696	1176.71948	-867.16589	1001.72333	988.88556	-852.96948	1003.36938	1157.06433	-723.4787	661.78455	898.92194	-678.10596	506.54111	926.94238	-747.01166	264.17242	918.64075	-773.57788	91.38509	947.16449	-813.10681	76.44485	994.31091	-636.20801	48.99564	941.30927	-765.72943	637.79315	1222.31482	-772.18958	511.01019	1199.15161	-832.57892	252.80638	1193.62366	-860.57819	67.78255	1146.89221	-903.68146	41.68966	1105.5603	-709.73883	38.38656	1132.96692	-804.31842	1711.26965	1066.07629	NaN	NaN	NaN	NaN	NaN	NaN	NaN	NaN	NaN	NaN	NaN	NaN	NaN	NaN	NaN	NaN	NaN	NaN	NaN	NaN	NaN
87	0.86	-699.72687	1672.95813	1001.43994	-694.35638	1664.13342	1133.32312	-833.13153	1616.91614	1008.55347	-825.29749	1613.20251	1138.27112	-831.14008	1461.54004	1066.58203	-869.03278	1134.02246	1078.34058	-722.19971	1383.82532	1063.91736	-685.42389	1206.12463	1058.48511	-900.58759	1291.54736	1152.87415	-781.47821	1413.9812	903.93726	-793.78503	1210.60779	832.38983	-800.76575	1098.76636	820.41406	-775.25745	951.7533	792.54242	-706.47803	839.00153	825.75378	-770.68701	832.31635	794.37708	-725.48254	753.47955	787.3559	-759.48242	1418.32251	1225.22156	-787.64264	1222.26782	1320.146	-771.92554	1101.97925	1332.79199	-727.05487	991.2829	1341.97791	-634.18787	878.37732	1291.79883	-680.10504	862.20575	1339.36743	-622.88342	800.36914	1329.95044	-705.56329	973.15857	957.32404	-696.87073	971.02612	1177.15857	-862.18958	1001.37659	988.88403	-848.39539	1002.94293	1157.14099	-718.66986	661.51282	898.4762	-672.34302	506.56799	926.47101	-733.3092	261.83878	918.25989	-753.26031	88.17197	946.90698	-791.79382	72.13435	994.22882	-614.49994	49.38343	941.56049	-762.41187	637.4342	1222.31934	-769.48511	510.61804	1199.28418	-831.49182	252.73184	1193.45508	-860.50531	67.7892	1146.8208	-903.68671	41.76344	1105.479	-709.64197	38.13251	1133.04993	-798.49286	1710.97095	1065.14014	NaN	NaN	NaN	NaN	NaN	NaN	NaN	NaN	NaN	NaN	NaN	NaN	NaN	NaN	NaN	NaN	NaN	NaN	NaN	NaN	NaN
88	0.87	-695.18134	1672.36853	1000.18433	-688.36853	1663.76367	1132.20313	-827.60052	1616.49414	1007.77783	-818.78729	1613.08105	1137.13782	-825.72186	1461.22046	1066.31396	-864.07611	1133.7677	1078.33435	-716.97192	1383.32751	1063.59668	-680.38306	1205.64624	1058.375	-895.31903	1291.47522	1152.87061	-776.61243	1413.43384	903.61584	-790.71204	1210.24915	832.10498	-798.69958	1098.54077	820.08295	-774.84094	951.25293	792.13208	-707.46716	837.61792	824.6051	-771.81769	831.78284	793.45959	-727.58252	752.3515	786.24158	-754.04767	1418.17322	1224.86328	-781.92346	1222.27588	1320.2207	-766.19043	1101.92029	1332.93237	-721.07208	991.25592	1341.73315	-628.61823	878.55145	1290.72668	-673.9505	862.43451	1339.04358	-616.76575	800.48615	1328.88354	-700.40405	972.91571	957.5929	-692.31647	970.64435	1177.52783	-857.11194	1000.9765	988.98535	-843.64862	1002.4505	1157.22266	-713.10193	661.51782	897.85663	-666.51447	506.4978	925.64319	-719.68494	259.60571	917.9469	-733.21216	85.35262	946.76135	-770.79456	68.01721	994.01013	-593.08826	50.03097	942.15796	-758.9151	637.01324	1222.29285	-766.65607	510.26025	1199.37146	-830.13446	252.60001	1193.53333	-860.34692	67.80013	1146.8606	-903.72546	41.86184	1105.41528	-709.55463	37.97129	1133.16064	-792.63678	1710.62195	1064.16003	NaN	NaN	NaN	NaN	NaN	NaN	NaN	NaN	NaN	NaN	NaN	NaN	NaN	NaN	NaN	NaN	NaN	NaN	NaN	NaN	NaN
89	0.88	-689.52106	1671.63489	999.04431	-682.35657	1663.29822	1131.01709	-822.08539	1616.04102	1007.16132	-812.8717	1612.91187	1136.48535	-820.39087	1460.8634	1066.03552	-859.06451	1133.38879	1078.27954	-711.6731	1382.78467	1063.15295	-675.35626	1205.11633	1058.21411	-890.01544	1291.30762	1152.77307	-771.65979	1412.85242	903.23395	-787.61328	1209.89685	831.72778	-796.58124	1098.23547	819.73224	-773.90784	950.77222	791.84216	-708.23352	836.31158	823.61908	-772.60767	831.51337	792.42651	-729.43732	751.28888	785.13257	-748.45673	1417.86182	1224.42822	-776.13	1222.13953	1320.18652	-760.46924	1101.77637	1332.97034	-715.32794	991.18152	1341.49622	-623.54071	878.38422	1290.00171	-667.93384	862.5047	1338.70129	-610.96722	800.49799	1327.90503	-695.0423	972.61053	957.84735	-687.5274	970.21533	1177.82642	-851.93933	1000.47095	989.04999	-838.83612	1001.90796	1157.31982	-708.90112	661.16461	897.36328	-661.23053	506.05081	925.20172	-706.31744	257.48456	917.68402	-713.47827	82.92813	946.77539	-750.62177	64.77813	994.00281	-572.33508	51.2	942.82281	-755.34229	636.55865	1222.09143	-763.64923	509.87976	1199.4967	-828.70032	252.47627	1193.42603	-860.19208	67.83744	1146.77783	-903.71021	41.94744	1105.35266	-709.45471	37.85897	1133.2489	-786.68304	1710.22839	1063.18323	NaN	NaN	NaN	NaN	NaN	NaN	NaN	NaN	NaN	NaN	NaN	NaN	NaN	NaN	NaN	NaN	NaN	NaN	NaN	NaN	NaN
